<svg width="51" height="51" viewBox="0 0 51 51" fill="none" xmlns="http://www.w3.org/2000/svg">
<path d="M0 25.5C0 11.4167 11.4167 0 25.5 0C39.5833 0 51 11.4167 51 25.5C51 39.5833 39.5833 51 25.5 51C11.4167 51 0 39.5833 0 25.5Z" fill="#EDEDED"/>
<rect x="7.5" y="14.125" width="36.4468" height="23.375" rx="4.5" stroke="#884D8C"/>
<path d="M11.8706 27.6271H34.7391" stroke="#884D8C" stroke-width="2" stroke-miterlimit="10" stroke-linecap="round"/>
<path d="M11.8706 31.9818H27.4212" stroke="#884D8C" stroke-width="2" stroke-miterlimit="10" stroke-linecap="round"/>
<path d="M51.0001 16.8911C51.0001 21.8012 46.9862 25.7823 42.0356 25.7823C37.085 25.7823 33.0712 21.8012 33.0712 16.8911C33.0712 11.981 37.085 8 42.0356 8C46.9862 8 51.0001 11.981 51.0001 16.8911Z" fill="#FEA726"/>
<path d="M38.8193 13.5125L45.4823 20.2697" stroke="white" stroke-width="2" stroke-miterlimit="10" stroke-linecap="round"/>
<path d="M45.4823 13.5125L38.8193 20.2697" stroke="white" stroke-width="2" stroke-miterlimit="10" stroke-linecap="round"/>
</svg>
