<svg width="42" height="32" viewBox="0 0 42 32" fill="none" xmlns="http://www.w3.org/2000/svg">
<path d="M18.2949 4.63867V6.78027L15.1572 7.36133C15.445 7.7487 15.6829 8.22461 15.8711 8.78906C16.0592 9.35352 16.1533 9.95117 16.1533 10.582C16.1533 12.4746 15.5003 13.9632 14.1943 15.0479C12.8883 16.1325 11.0898 16.6748 8.79883 16.6748C8.21224 16.6748 7.68099 16.6305 7.20508 16.542C6.36393 17.0622 5.94336 17.6709 5.94336 18.3682C5.94336 18.7887 6.13704 19.1042 6.52441 19.3145C6.92285 19.5247 7.64779 19.6299 8.69922 19.6299H11.9033C13.9287 19.6299 15.4671 20.0615 16.5186 20.9248C17.57 21.7881 18.0957 23.0332 18.0957 24.6602C18.0957 26.7409 17.238 28.3457 15.5225 29.4746C13.807 30.6035 11.3278 31.168 8.08496 31.168C5.58366 31.168 3.67448 30.7253 2.35742 29.8398C1.04036 28.9544 0.381836 27.6927 0.381836 26.0547C0.381836 24.9258 0.736003 23.974 1.44434 23.1992C2.16374 22.4355 3.16536 21.9043 4.44922 21.6055C3.92904 21.3841 3.4974 21.0299 3.1543 20.543C2.82227 20.0449 2.65625 19.5247 2.65625 18.9824C2.65625 18.2962 2.84993 17.7152 3.2373 17.2393C3.62467 16.7633 4.2002 16.293 4.96387 15.8281C4.01204 15.4186 3.2373 14.7546 2.63965 13.8359C2.05306 12.9062 1.75977 11.8216 1.75977 10.582C1.75977 8.58984 2.38509 7.0459 3.63574 5.9502C4.89746 4.85449 6.69043 4.30664 9.01465 4.30664C9.53483 4.30664 10.0771 4.34538 10.6416 4.42285C11.2171 4.48926 11.6488 4.5612 11.9365 4.63867H18.2949ZM3.86816 25.8555C3.86816 26.6966 4.24447 27.3441 4.99707 27.7979C5.76074 28.2516 6.82878 28.4785 8.20117 28.4785C10.3262 28.4785 11.9089 28.1742 12.9492 27.5654C13.9896 26.9567 14.5098 26.1488 14.5098 25.1416C14.5098 24.3447 14.222 23.7747 13.6465 23.4316C13.082 23.0996 12.0251 22.9336 10.4756 22.9336H7.52051C6.40267 22.9336 5.51172 23.1937 4.84766 23.7139C4.19466 24.2451 3.86816 24.959 3.86816 25.8555ZM5.54492 10.582C5.54492 11.7331 5.83822 12.6185 6.4248 13.2383C7.02246 13.8581 7.87467 14.168 8.98145 14.168C11.2393 14.168 12.3682 12.9616 12.3682 10.5488C12.3682 9.35352 12.0859 8.4349 11.5215 7.79297C10.9681 7.13997 10.1214 6.81348 8.98145 6.81348C7.85254 6.81348 6.99479 7.13444 6.4082 7.77637C5.83268 8.41829 5.54492 9.35352 5.54492 10.582ZM38.001 13.7861C38.001 16.7855 37.2318 19.1263 35.6934 20.8086C34.1549 22.4909 32.0133 23.332 29.2686 23.332C27.5531 23.332 26.0368 22.9447 24.7197 22.1699C23.4027 21.3952 22.39 20.2829 21.6816 18.833C20.9733 17.3831 20.6191 15.7008 20.6191 13.7861C20.6191 10.8089 21.3828 8.4847 22.9102 6.81348C24.4375 5.14225 26.5902 4.30664 29.3682 4.30664C32.0244 4.30664 34.1273 5.16439 35.6768 6.87988C37.2262 8.58431 38.001 10.8864 38.001 13.7861ZM24.6367 13.7861C24.6367 18.0251 26.2028 20.1445 29.335 20.1445C32.4339 20.1445 33.9834 18.0251 33.9834 13.7861C33.9834 9.59147 32.4229 7.49414 29.3018 7.49414C27.6637 7.49414 26.474 8.03646 25.7324 9.12109C25.002 10.2057 24.6367 11.7607 24.6367 13.7861Z" fill="#CD7B61"/>
<path d="M20.1033 4.63867V6.78027L16.9656 7.36133C17.2533 7.7487 17.4913 8.22461 17.6794 8.78906C17.8676 9.35352 17.9617 9.95117 17.9617 10.582C17.9617 12.4746 17.3087 13.9632 16.0027 15.0479C14.6967 16.1325 12.8982 16.6748 10.6072 16.6748C10.0206 16.6748 9.48934 16.6305 9.01343 16.542C8.17228 17.0622 7.75171 17.6709 7.75171 18.3682C7.75171 18.7887 7.94539 19.1042 8.33276 19.3145C8.7312 19.5247 9.45614 19.6299 10.5076 19.6299H13.7117C15.7371 19.6299 17.2755 20.0615 18.3269 20.9248C19.3783 21.7881 19.9041 23.0332 19.9041 24.6602C19.9041 26.7409 19.0463 28.3457 17.3308 29.4746C15.6153 30.6035 13.1361 31.168 9.89331 31.168C7.39201 31.168 5.48283 30.7253 4.16577 29.8398C2.84871 28.9544 2.19019 27.6927 2.19019 26.0547C2.19019 24.9258 2.54435 23.974 3.25269 23.1992C3.97209 22.4355 4.97371 21.9043 6.25757 21.6055C5.73739 21.3841 5.30575 21.0299 4.96265 20.543C4.63062 20.0449 4.4646 19.5247 4.4646 18.9824C4.4646 18.2962 4.65828 17.7152 5.04565 17.2393C5.43302 16.7633 6.00854 16.293 6.77222 15.8281C5.82039 15.4186 5.04565 14.7546 4.448 13.8359C3.86141 12.9062 3.56812 11.8216 3.56812 10.582C3.56812 8.58984 4.19344 7.0459 5.44409 5.9502C6.70581 4.85449 8.49878 4.30664 10.823 4.30664C11.3432 4.30664 11.8855 4.34538 12.45 4.42285C13.0255 4.48926 13.4571 4.5612 13.7449 4.63867H20.1033ZM5.67651 25.8555C5.67651 26.6966 6.05282 27.3441 6.80542 27.7979C7.56909 28.2516 8.63713 28.4785 10.0095 28.4785C12.1345 28.4785 13.7172 28.1742 14.7576 27.5654C15.7979 26.9567 16.3181 26.1488 16.3181 25.1416C16.3181 24.3447 16.0304 23.7747 15.4548 23.4316C14.8904 23.0996 13.8334 22.9336 12.2839 22.9336H9.32886C8.21102 22.9336 7.32007 23.1937 6.65601 23.7139C6.00301 24.2451 5.67651 24.959 5.67651 25.8555ZM7.35327 10.582C7.35327 11.7331 7.64657 12.6185 8.23315 13.2383C8.83081 13.8581 9.68302 14.168 10.7898 14.168C13.0476 14.168 14.1765 12.9616 14.1765 10.5488C14.1765 9.35352 13.8943 8.4349 13.3298 7.79297C12.7764 7.13997 11.9298 6.81348 10.7898 6.81348C9.66089 6.81348 8.80314 7.13444 8.21655 7.77637C7.64103 8.41829 7.35327 9.35352 7.35327 10.582ZM39.8093 13.7861C39.8093 16.7855 39.0401 19.1263 37.5017 20.8086C35.9633 22.4909 33.8217 23.332 31.0769 23.332C29.3614 23.332 27.8451 22.9447 26.5281 22.1699C25.211 21.3952 24.1983 20.2829 23.49 18.833C22.7817 17.3831 22.4275 15.7008 22.4275 13.7861C22.4275 10.8089 23.1912 8.4847 24.7185 6.81348C26.2458 5.14225 28.3985 4.30664 31.1765 4.30664C33.8328 4.30664 35.9356 5.16439 37.4851 6.87988C39.0346 8.58431 39.8093 10.8864 39.8093 13.7861ZM26.4451 13.7861C26.4451 18.0251 28.0111 20.1445 31.1433 20.1445C34.2423 20.1445 35.7917 18.0251 35.7917 13.7861C35.7917 9.59147 34.2312 7.49414 31.1101 7.49414C29.4721 7.49414 28.2823 8.03646 27.5408 9.12109C26.8103 10.2057 26.4451 11.7607 26.4451 13.7861Z" fill="white"/>
</svg>
