<svg width="43" height="26" viewBox="0 0 43 26" fill="none" xmlns="http://www.w3.org/2000/svg">
<path d="M26.2815 13.0959C26.2815 20.1865 20.5335 25.9345 13.443 25.9345C6.3524 25.9345 0.60437 20.1865 0.60437 13.0959C0.60437 6.00535 6.3524 0.257324 13.443 0.257324C20.5335 0.257324 26.2815 6.00535 26.2815 13.0959Z" fill="#F0652A"/>
<path d="M42.5558 13.0959C42.5558 20.1865 36.8078 25.9345 29.7172 25.9345C22.6267 25.9345 16.8786 20.1865 16.8786 13.0959C16.8786 6.00535 22.6267 0.257324 29.7172 0.257324C36.8078 0.257324 42.5558 6.00535 42.5558 13.0959Z" fill="#FE9B02"/>
<path d="M26.2815 13.0959C26.2815 20.1865 20.5335 25.9345 13.443 25.9345C6.3524 25.9345 0.60437 20.1865 0.60437 13.0959C0.60437 6.00535 6.3524 0.257324 13.443 0.257324C20.5335 0.257324 26.2815 6.00535 26.2815 13.0959Z" fill="#F0422A" fill-opacity="0.58"/>
</svg>
