<svg width="51" height="51" viewBox="0 0 51 51" fill="none" xmlns="http://www.w3.org/2000/svg">
<path d="M0 25.5C0 11.4167 11.4167 0 25.5 0C39.5833 0 51 11.4167 51 25.5C51 39.5833 39.5833 51 25.5 51C11.4167 51 0 39.5833 0 25.5Z" fill="#EDEDED"/>
<path d="M24.4103 32.3915L24.4097 32.3926L21.8388 36.9216L21.8386 36.9218L19.2718 41.4495C19.2718 41.4496 19.2717 41.4497 19.2716 41.4499C19.2338 41.5156 19.1479 41.5156 19.1101 41.4499C19.11 41.4498 19.1099 41.4496 19.1098 41.4495L16.5396 36.9218L16.5395 36.9216L15.2254 34.604C15.2042 34.5665 15.1926 34.5394 15.1863 34.5215C15.2254 34.4874 15.2969 34.4421 15.4204 34.383C15.5126 34.3389 15.6097 34.2978 15.7216 34.2506C15.7641 34.2326 15.8088 34.2137 15.8561 34.1934C16.1654 34.0609 16.5885 33.871 16.8871 33.5431C17.1927 33.2075 17.3351 32.7695 17.2447 32.2316H19.1925H24.331C24.3644 32.2316 24.3916 32.2464 24.4107 32.2803C24.4304 32.3151 24.4316 32.3542 24.4103 32.3915Z" stroke="#884D8C"/>
<path d="M9.50964 23.7365L9.50964 23.7358C9.54559 17.9915 13.4836 13.5 18.1684 13.5H33.8306C38.509 13.5 42.4469 17.985 42.4894 23.7261V23.7262L42.4995 25.0601C42.5387 30.8723 38.5756 35.4613 33.8374 35.4613H18.1583C13.4266 35.4613 9.4637 30.879 9.49951 25.0704C9.49951 25.0703 9.49951 25.0702 9.49951 25.0701L9.50964 23.7365Z" fill="#EDEDED" stroke="#884D8C"/>
<path d="M21.3243 24.4824C21.3243 25.4694 20.5236 26.2672 19.5372 26.2672C18.5507 26.2672 17.75 25.4694 17.75 24.4824C17.75 23.4954 18.5507 22.6976 19.5372 22.6976C20.5236 22.6976 21.3243 23.4954 21.3243 24.4824Z" fill="#884D8C"/>
<path d="M27.7872 24.4824C27.7872 25.4694 26.9865 26.2672 26.0001 26.2672C25.0136 26.2672 24.2129 25.4694 24.2129 24.4824C24.2129 23.4954 25.0136 22.6976 26.0001 22.6976C26.9865 22.6976 27.7872 23.4954 27.7872 24.4824Z" fill="#884D8C"/>
<path d="M34.25 24.4824C34.25 25.4694 33.4493 26.2672 32.4628 26.2672C31.4763 26.2672 30.6757 25.4694 30.6757 24.4824C30.6757 23.4954 31.4763 22.6976 32.4628 22.6976C33.4493 22.6976 34.25 23.4954 34.25 24.4824Z" fill="#884D8C"/>
</svg>
